<svg width="658" height="342" viewBox="0 0 658 342" fill="none" xmlns="http://www.w3.org/2000/svg">
<g clip-path="url(#clip0_3_2)">
<path d="M122.8 206.27C122.8 189.29 122.8 173.97 122.8 157.11C117.52 158.09 113.57 158.47 109.82 159.57C65.4599 172.49 31.6999 154.16 17.1199 110.27C15.0199 103.95 7.8299 99.3201 -0.350098 90.1701C5.8999 86.2701 13.3499 79.8101 21.9799 77.2001C25.0599 76.2701 32.9299 83.8001 35.2299 88.9801C45.1799 111.42 57.3699 131.77 85.1799 130.98C113.34 130.17 126.1 109.2 135.64 86.0101C137.21 82.1801 138.57 78.2701 141.55 70.3101C152.54 77.3301 162.04 83.4101 171.53 89.4801C168.91 90.2901 166.29 91.1001 163.67 91.9101C160.22 101.15 154.13 110.3 153.79 119.66C152.57 153.57 152.97 187.55 153.51 221.49C153.61 227.98 155.34 238.44 159.36 240.22C182.55 250.53 174.41 269.95 176.65 288.87C168.36 285.21 162.14 282.47 155.98 279.75C130.84 330.25 98.5199 348.08 59.8299 333.56C26.4899 321.04 8.51991 284.12 18.4199 248.47C29.4499 208.79 62.5899 194.91 122.8 206.27ZM64.9099 227.2C63.2399 229.34 61.5799 231.49 59.9099 233.63C59.9099 255.93 59.4099 278.25 60.0999 300.53C60.4999 313.44 68.6099 313.62 77.4999 307.98C92.3099 298.59 107.39 289.45 121 278.51C124.5 275.7 125.55 262.47 123.23 260.97C104.41 248.78 84.4999 238.24 64.9099 227.2Z" fill="#1A3636"/>
<path d="M611.45 327.32C586.87 341.76 558.73 343.13 530.29 323.21C525.5 319.85 515.78 321.89 508.84 323.53C487.74 328.52 466.88 334.55 443.11 340.93C443.11 283.2 443.11 229.32 443.11 173.93C450.94 172.42 458.93 170.88 470.11 168.73C470.11 216.64 470.11 262.15 470.11 310.57C514.48 305.31 551.75 290.61 589.19 270.63C584.45 275.64 579.94 280.89 574.9 285.58C569.87 290.26 564.32 294.37 558.56 299.1C577.27 309.55 593.42 305.88 604.78 289.66C616.03 273.61 612.12 250.17 596.25 238.55C580.8 227.23 558.28 228.98 546.39 243.49C541.62 249.31 535.8 257.38 536.37 263.9C538.37 286.61 523.44 286.14 507.82 288.26C501.16 260.41 505.98 236.45 526.85 217.91C554.14 193.67 584.37 194.3 616.73 212.95C618.44 208.1 618.7 202.77 621.12 201.47C626.69 198.48 633.66 195.36 639.4 196.31C643.48 196.98 649.39 204.14 649.49 208.52C650.32 245.25 650.8 282.04 649.26 318.72C648.99 325.27 639.83 333 632.93 337C629.92 338.76 622.25 332.46 611.45 327.32Z" fill="#1A3636"/>
<path d="M333.4 341.56C307.26 320.49 282.91 336.04 258.09 337.37C230.45 338.86 205.8 321.24 195.12 295.8C184.09 269.51 189.48 239.01 209.81 219.73C231.09 199.55 256.07 194.04 283.92 204.36C289.7 206.5 295.22 209.37 302.45 212.61C305.51 192.38 317.72 192.92 333.39 197.8C333.4 243.61 333.4 289.69 333.4 341.56ZM296.41 268.95C296.95 249.16 279.17 231.35 258.83 231.32C238.07 231.29 220.91 247.94 220.64 268.37C220.38 288.61 237.69 306.01 258.16 306.08C278.87 306.16 295.84 289.67 296.41 268.95Z" fill="#1A3636"/>
<path d="M382.31 174.65C382.31 213.33 383.45 250.66 381.86 287.87C380.98 308.51 386.1 318.53 408.37 316.22C416.94 315.33 427.4 314.63 427.27 329.3C427.15 344.09 417.03 341.95 408.1 342.04C390.6 342.23 373.09 342.09 354.15 342.09C354.15 284.37 354.15 229.7 354.15 172.98C363.5 173.54 371.56 174.01 382.31 174.65Z" fill="#1A3636"/>
<path d="M314.41 72.91C314.41 65.24 314.08 59.79 314.52 54.39C314.85 50.25 313.6 48.18 309.49 47.26C302.98 45.8 296.57 43.91 288.72 41.84C289.28 47.97 289.78 52.75 290.11 57.55C290.21 58.97 290.16 60.6 289.52 61.78C289.26 62.26 286.68 62.28 286.19 61.68C285.39 60.69 285.15 59.01 285.21 57.64C285.29 55.61 285.99 53.62 286.14 51.59C286.61 45.26 287.04 38.87 275.37 38.14C284.91 33.87 291.92 30.73 298.93 27.6C317.42 19.34 335.93 11.14 354.37 2.78C362.95 -1.11 371.25 -1.09001 379.93 2.73999C403.19 13.03 426.59 23.03 449.93 33.17C451.78 33.97 453.54 35 455.82 36.17C451.91 38.37 448.42 40 445.3 42.14C437.7 47.36 430.53 47.31 421.96 43.42C400.91 33.86 378.97 27.5 355.5 32.72C348.94 34.18 342.76 37.28 336.68 40.47C352.84 36.88 368.86 33.76 385.3 37.38C391.35 38.71 397.41 40.39 403.15 42.71C415.34 47.64 417.24 51.6 415.33 66.02C380.75 42.92 347.29 41.35 314.41 72.91Z" fill="#1A3636"/>
<path d="M417.27 110.87C416.99 140.16 393.31 163.51 364.43 162.99C335.94 162.48 312.96 138.55 313.36 109.81C313.77 80.39 337.2 57.34 366.25 57.78C394.78 58.2 417.55 81.9 417.27 110.87ZM365.36 147.52C386.11 147.31 402.74 130.19 402.47 109.3C402.22 89.79 384.54 72.63 365.01 72.96C345.05 73.29 328.49 90.1 328.42 110.09C328.35 130.71 345.14 147.72 365.36 147.52Z" fill="#1A3636"/>
<path d="M497.38 76.9301C507.78 76.9301 517.65 76.5401 527.48 77.0301C539.59 77.6301 547.3 84.2101 549.24 94.5601C551.17 104.87 546.92 112.36 535.93 118.11C535.28 118.45 534.72 118.98 533.67 119.75C538.61 128.2 543.52 136.61 548.55 145.23C533.44 147.6 532.75 147.27 525.26 134.96C522.05 129.68 518.78 124.44 515.53 119.18C514.64 119.49 513.76 119.8 512.87 120.11C512.87 128.42 512.87 136.72 512.87 145.06C510.83 145.61 509.89 146.04 508.94 146.09C496.08 146.72 496.18 146.69 496.24 133.66C496.32 117.34 496.14 101.03 496.19 84.7101C496.21 82.4301 496.87 80.1401 497.38 76.9301ZM519.33 108.99C529.46 109.05 533.28 106.31 533.18 99.6101C533.09 93.3601 528.89 90.4001 520.68 90.0401C514.67 89.7801 511.26 91.3401 512.15 98.1901C512.82 103.4 510.07 110.8 519.33 108.99Z" fill="#1A3636"/>
<path d="M307.93 121.83C303.38 140.32 288.84 149.13 268.88 146.3C251.24 143.8 241.1 129.07 242.28 107.64C243.27 89.56 255.8 77.4 273.66 76.32C289.75 75.34 305.68 84.69 307.27 100.99C299.92 100.67 293.08 103.19 286.41 95.62C278.06 86.14 263.24 90.7899 260.09 103.11C258.73 108.41 258.64 114.61 259.95 119.91C262.96 132.04 278.03 136.73 286.4 127.46C293 120.16 299.86 121.79 307.93 121.83Z" fill="#1A3636"/>
<path d="M427.95 77.39C432.71 77.39 437.51 77.39 443.14 77.39C443.14 91.09 443.06 104.26 443.17 117.44C443.22 123.41 444.36 129 451.23 130.95C459.87 133.4 466.49 129.53 467.37 120.41C468.36 110.12 468.14 99.71 468.38 89.36C468.47 85.54 468.39 81.71 468.39 77.37C473.84 77.37 478.38 77.37 483.31 77.37C483.31 93.7 484.46 109.78 482.96 125.62C481.67 139.22 469.75 146.83 454.56 146.67C439.62 146.51 429.58 139.7 428.26 125.61C426.82 109.99 427.95 94.14 427.95 77.39Z" fill="#1A3636"/>
<path d="M606.2 95.94C598.65 94.68 590.79 98.49 585.39 90.15C584.57 88.88 578.86 90.74 575.42 91.16C576.3 94.52 576.11 99.26 578.29 100.93C582.26 103.98 587.6 105.3 592.43 107.17C603.9 111.61 609.6 119.54 608.19 129.27C606.67 139.78 598.42 146.13 585.68 146.59C569.26 147.19 559.58 140.35 558.13 126.59C565.09 126.77 572.29 122.94 577.58 131.97C580.14 136.34 586.18 135.89 589.62 131.43C592.86 127.23 590.54 123.19 586.58 121.02C581.85 118.42 576.62 116.7 571.55 114.76C560.72 110.62 556.29 103.75 557.45 92.63C558.37 83.74 565.47 77.64 576.4 76.33C593.42 74.3 604.18 80.98 606.2 95.94Z" fill="#1A3636"/>
<path d="M619.09 77.36C632.22 77.36 644.85 77.36 657.97 77.36C657.97 81.34 657.97 85.02 657.97 89.58C650.03 89.58 642.63 89.58 634.87 89.58C634.87 94.98 634.87 99.5 634.87 104.88C642.52 104.88 649.7 104.88 657.46 104.88C657.46 109.17 657.46 112.6 657.46 116.75C652.16 116.75 647.21 117.12 642.34 116.66C635.59 116.03 633.44 118.92 634.42 125.2C634.81 127.7 634.79 130.25 635.02 133.73C642.85 133.73 650.25 133.73 657.47 133.73C659.23 145.99 659.23 146.04 648.24 146.13C638.69 146.21 629.15 146.15 619.07 146.15C619.09 122.71 619.09 100.29 619.09 77.36Z" fill="#1A3636"/>
<path d="M356.35 129.33C356.35 116.52 356.35 105.52 356.35 93.2C366.77 99.23 376.47 104.84 387.4 111.17C376.79 117.38 367.36 122.89 356.35 129.33Z" fill="#1A3636"/>
</g>
<defs>
<clipPath id="clip0_3_2">
<rect width="658" height="342" fill="white"/>
</clipPath>
</defs>
</svg>
